<svg xmlns="http://www.w3.org/2000/svg" xmlns:xlink="http://www.w3.org/1999/xlink" width="500" zoomAndPan="magnify" viewBox="0 0 375 374.999991" height="500" preserveAspectRatio="xMidYMid meet" version="1.0"><defs><clipPath id="313221aa75"><path d="M 112.5 112.5 L 262.5 112.5 L 262.5 262.5 L 112.5 262.5 Z M 112.5 112.5 " clip-rule="nonzero"/></clipPath></defs><rect x="-37.5" width="450" fill="#ffffff" y="-37.499999" height="449.999989" fill-opacity="1"/><rect x="-37.5" width="450" fill="#ffffff" y="-37.499999" height="449.999989" fill-opacity="1"/><path fill="#000000" d="M 211.851562 158.25 L 211.613281 158.074219 C 209.132812 156.421875 205.964844 156.96875 204.398438 159.316406 C 203.582031 160.539062 203.269531 162.03125 203.546875 163.40625 C 203.792969 164.652344 204.496094 165.730469 205.53125 166.460938 C 212.636719 171.8125 216.875 180.402344 216.875 189.453125 C 216.875 205.503906 203.8125 218.5625 187.753906 218.5625 C 171.691406 218.5625 158.628906 205.503906 158.628906 189.453125 C 158.628906 180.1875 162.660156 172.023438 169.980469 166.453125 C 171.179688 165.605469 171.925781 164.28125 172.039062 162.796875 C 172.132812 161.597656 171.800781 160.359375 171.105469 159.316406 C 169.539062 156.96875 166.371094 156.421875 163.890625 158.074219 L 163.730469 158.191406 C 153.871094 165.582031 148.214844 176.976562 148.214844 189.453125 C 148.214844 211.105469 165.839844 228.722656 187.5 228.722656 C 209.164062 228.722656 226.785156 211.105469 226.785156 189.453125 C 226.785156 177.15625 221.34375 165.78125 211.851562 158.25 Z M 211.851562 158.25 " fill-opacity="1" fill-rule="nonzero"/><path fill="#000000" d="M 187.5 194.28125 C 190.207031 194.28125 192.582031 191.910156 192.582031 189.203125 L 192.582031 146.71875 C 192.582031 144.011719 190.207031 141.640625 187.5 141.640625 C 184.792969 141.640625 182.417969 144.011719 182.417969 146.71875 L 182.417969 189.453125 C 182.417969 192.117188 184.699219 194.28125 187.5 194.28125 Z M 187.5 194.28125 " fill-opacity="1" fill-rule="nonzero"/><g clip-path="url(#313221aa75)"><path fill="#000000" d="M 187.5 112.5 C 146.144531 112.5 112.5 146.144531 112.5 187.5 C 112.5 228.855469 146.144531 262.5 187.5 262.5 C 228.855469 262.5 262.5 228.855469 262.5 187.5 C 262.5 146.144531 228.855469 112.5 187.5 112.5 Z M 187.5 252.839844 C 151.472656 252.839844 122.160156 223.527344 122.160156 187.5 C 122.160156 151.472656 151.472656 122.160156 187.5 122.160156 C 223.527344 122.160156 252.839844 151.472656 252.839844 187.519531 C 252.929688 204.890625 246.226562 221.246094 233.96875 233.566406 C 221.601562 245.996094 205.097656 252.839844 187.5 252.839844 Z M 187.5 252.839844 " fill-opacity="1" fill-rule="nonzero"/></g></svg>